# xmcd CD database file
#
# Track frame offsets:
#	150
#	23126
#	44024
#	75879
#	99408
#	110883
#	134258
#	166070
#	215485
#	243856
#	269506
#	285026
#	320506
#
# Disc length: 4666 seconds
#
# Revision: 0
# Processed by: cddbd v1.5.2PL0 Copyright (c) Steve Scherf et al.
# Submitted via: CDex 1.70beta1
#
DISCID=aa12380d
DTITLE=Various Artist - Les Trésors du Jazz - CD 64
DYEAR=1956
DGENRE=Jazz
TTITLE0=The Young Bloods - Once More
TTITLE1=Zoot Sims - Blinuet
TTITLE2=Hank Mobley - Hank's Shout
TTITLE3=Russ Freeman and Chet Baker - An Afternoon At Home
TTITLE4=Billie Holiday - Don't Explain
TTITLE5=Horace Silver - For Heaven's Sake
TTITLE6=Horace Silver Quintet - Senor Blues
TTITLE7=Hampton Hawes - Between The Devil and the Deep Blue Sea
TTITLE8=Hampton Hawes - Blues #4
TTITLE9=David "Fathead" Newman - Ain't Misbehavin'
TTITLE10=Kenny Clarke Plays André Hodeir - Oblique
TTITLE11=Stan Getz Quartet - Blues for Mary Jane
TTITLE12=Art Pepper - All the things you are
EXTD=YEAR: 1956
EXTT0=
EXTT1=
EXTT2=
EXTT3=
EXTT4=
EXTT5=
EXTT6=
EXTT7=
EXTT8=
EXTT9=
EXTT10=
EXTT11=
EXTT12=
PLAYORDER=
